<mxfile host="app.diagrams.net" modified="2022-10-27T07:19:40.568Z" agent="5.0 (X11; Linux x86_64) AppleWebKit/537.36 (KHTML, like Gecko) Chrome/105.0.0.0 Safari/537.36" etag="T31bQ--toEtuGCCVjE9d" version="20.2.3" type="github">
  <diagram id="U38oFelVTsjHfocPxl4H" name="Page-1">
    <mxGraphModel dx="1210" dy="578" grid="1" gridSize="10" guides="1" tooltips="1" connect="1" arrows="1" fold="1" page="1" pageScale="1" pageWidth="850" pageHeight="1100" math="0" shadow="0">
      <root>
        <mxCell id="0" />
        <mxCell id="1" parent="0" />
        <mxCell id="GAjJ1eAlUyZaiybXQiKd-1" value="" style="rounded=0;whiteSpace=wrap;html=1;" vertex="1" parent="1">
          <mxGeometry x="190" y="80" width="450" height="440" as="geometry" />
        </mxCell>
        <mxCell id="GAjJ1eAlUyZaiybXQiKd-3" value="&lt;font style=&quot;font-size: 14px;&quot;&gt;&lt;b&gt;LIBRARY APP&lt;/b&gt;&lt;/font&gt;" style="text;html=1;strokeColor=none;fillColor=none;align=center;verticalAlign=middle;whiteSpace=wrap;rounded=0;" vertex="1" parent="1">
          <mxGeometry x="365" y="100" width="100" height="30" as="geometry" />
        </mxCell>
        <mxCell id="GAjJ1eAlUyZaiybXQiKd-4" value="Login" style="ellipse;whiteSpace=wrap;html=1;fontSize=14;" vertex="1" parent="1">
          <mxGeometry x="250" y="180" width="85" height="50" as="geometry" />
        </mxCell>
        <mxCell id="GAjJ1eAlUyZaiybXQiKd-6" value="Return invalid password" style="ellipse;whiteSpace=wrap;html=1;fontSize=14;" vertex="1" parent="1">
          <mxGeometry x="465" y="220" width="105" height="60" as="geometry" />
        </mxCell>
        <mxCell id="GAjJ1eAlUyZaiybXQiKd-7" value="Verify password" style="ellipse;whiteSpace=wrap;html=1;fontSize=14;" vertex="1" parent="1">
          <mxGeometry x="470" y="130" width="95" height="60" as="geometry" />
        </mxCell>
      </root>
    </mxGraphModel>
  </diagram>
</mxfile>
